<svg width="124" height="72" viewBox="0 0 124 72" fill="none" xmlns="http://www.w3.org/2000/svg">
<path d="M41.0088 16.9776L18.7009 48.9847H1L23.7929 16.9776C35.4319 -0.723251 37.1292 0.00420311 41.0088 0.00420311C48.7681 0.00420311 51.9204 7.27854 58.4673 16.9776H41.0088Z" fill="url(#paint0_linear)"/>
<path d="M25.0053 48.9847L33.7345 37.1033H54.3451L51.9204 32.9812H69.6212L80.5327 48.9847H25.0053Z" fill="url(#paint1_linear)"/>
<path d="M59.6796 13.5829L51.4354 1.45898H105.75C110.6 1.45898 121.511 3.64128 121.511 12.613C121.511 22.0696 115.45 24.4944 115.45 24.4944C115.45 24.4944 122.481 24.9793 122.481 36.8608C122.481 46.9067 110.6 49.0655 105.75 48.9846H84.1699L76.1681 36.8608H105.75V29.8289H49.0106L42.7062 19.6448H105.75V13.5829H59.6796Z" fill="white"/>
<path d="M106.72 1.45898C108.822 1.45898 110.903 1.79139 112.845 2.43723C114.786 3.08307 116.55 4.0297 118.037 5.22305C119.523 6.41641 120.701 7.83313 121.506 9.39232C122.31 10.9515 122.724 12.6227 122.724 14.3103C122.724 15.998 122.31 17.6691 121.506 19.2283C120.701 20.7875 119.523 22.2042 118.037 23.3976C116.55 24.5909 114.786 25.5375 112.845 26.1834C110.903 26.8292 108.822 27.1616 106.72 27.1616L106.72 1.45898Z" fill="white"/>
<path d="M106.72 20.3723C108.949 20.3723 111.156 20.7423 113.216 21.4613C115.275 22.1802 117.146 23.234 118.722 24.5624C120.299 25.8909 121.549 27.468 122.402 29.2037C123.255 30.9394 123.694 32.7997 123.694 34.6785C123.694 36.5572 123.255 38.4175 122.402 40.1532C121.549 41.8889 120.299 43.466 118.722 44.7945C117.146 46.1229 115.275 47.1767 113.216 47.8956C111.156 48.6146 108.949 48.9846 106.72 48.9846L106.72 20.3723Z" fill="white"/>
<path d="M7.60156 65.0312H2.83594L1.76562 68H0.21875L4.5625 56.625H5.875L10.2266 68H8.6875L7.60156 65.0312ZM3.28906 63.7969H7.15625L5.21875 58.4766L3.28906 63.7969ZM16.5494 62.9297C15.2629 62.5599 14.3254 62.1068 13.7369 61.5703C13.1535 61.0286 12.8619 60.362 12.8619 59.5703C12.8619 58.6745 13.2186 57.9349 13.9322 57.3516C14.6509 56.763 15.5832 56.4688 16.7291 56.4688C17.5103 56.4688 18.2056 56.6198 18.815 56.9219C19.4296 57.224 19.9035 57.6406 20.2369 58.1719C20.5754 58.7031 20.7447 59.2839 20.7447 59.9141H19.2369C19.2369 59.2266 19.0181 58.6875 18.5806 58.2969C18.1431 57.901 17.5259 57.7031 16.7291 57.7031C15.9895 57.7031 15.4114 57.8672 14.9947 58.1953C14.5832 58.5182 14.3775 58.9688 14.3775 59.5469C14.3775 60.0104 14.5728 60.4036 14.9634 60.7266C15.3593 61.0443 16.0285 61.3359 16.9713 61.6016C17.9192 61.8672 18.6588 62.1615 19.19 62.4844C19.7265 62.8021 20.1223 63.1745 20.3775 63.6016C20.6379 64.0286 20.7681 64.5312 20.7681 65.1094C20.7681 66.0312 20.4088 66.7708 19.69 67.3281C18.9713 67.8802 18.0103 68.1562 16.8072 68.1562C16.0259 68.1562 15.2968 68.0078 14.6197 67.7109C13.9426 67.4089 13.4192 66.9974 13.0494 66.4766C12.6848 65.9557 12.5025 65.3646 12.5025 64.7031H14.0103C14.0103 65.3906 14.2629 65.9349 14.7681 66.3359C15.2785 66.7318 15.9582 66.9297 16.8072 66.9297C17.5989 66.9297 18.2056 66.7682 18.6275 66.4453C19.0494 66.1224 19.2603 65.6823 19.2603 65.125C19.2603 64.5677 19.065 64.138 18.6744 63.8359C18.2838 63.5286 17.5754 63.2266 16.5494 62.9297ZM27.0284 62.7109L25.6378 64.1562V68H24.1378V56.625H25.6378V62.25L30.6925 56.625H32.505L28.0284 61.6484L32.8566 68H31.0597L27.0284 62.7109ZM35.6091 68V56.625H39.3278C40.5622 56.625 41.4893 56.8802 42.1091 57.3906C42.7341 57.901 43.0466 58.6562 43.0466 59.6562C43.0466 60.1875 42.8955 60.6589 42.5934 61.0703C42.2914 61.4766 41.8799 61.7917 41.3591 62.0156C41.9736 62.1875 42.458 62.5156 42.8122 63C43.1716 63.4792 43.3512 64.0521 43.3512 64.7188C43.3512 65.7396 43.0205 66.5417 42.3591 67.125C41.6976 67.7083 40.7627 68 39.5544 68H35.6091ZM37.1091 62.6797V66.7734H39.5856C40.2835 66.7734 40.833 66.5938 41.2341 66.2344C41.6403 65.8698 41.8434 65.3698 41.8434 64.7344C41.8434 63.3646 41.0986 62.6797 39.6091 62.6797H37.1091ZM37.1091 61.4766H39.3747C40.0309 61.4766 40.5544 61.3125 40.945 60.9844C41.3408 60.6562 41.5387 60.2109 41.5387 59.6484C41.5387 59.0234 41.3565 58.5703 40.9919 58.2891C40.6273 58.0026 40.0726 57.8594 39.3278 57.8594H37.1091V61.4766ZM55.7678 62.6797C55.7678 63.7943 55.5803 64.7682 55.2053 65.6016C54.8303 66.4297 54.2991 67.0625 53.6116 67.5C52.9241 67.9375 52.122 68.1562 51.2053 68.1562C50.3095 68.1562 49.5152 67.9375 48.8225 67.5C48.1298 67.0573 47.5907 66.4297 47.2053 65.6172C46.8251 64.7995 46.6298 63.8542 46.6194 62.7812V61.9609C46.6194 60.8672 46.8095 59.901 47.1897 59.0625C47.5699 58.224 48.1064 57.5833 48.7991 57.1406C49.497 56.6927 50.2939 56.4688 51.1897 56.4688C52.1011 56.4688 52.9032 56.6901 53.5959 57.1328C54.2939 57.5703 54.8303 58.2083 55.2053 59.0469C55.5803 59.8802 55.7678 60.8516 55.7678 61.9609V62.6797ZM54.2756 61.9453C54.2756 60.5964 54.0048 59.5625 53.4631 58.8438C52.9215 58.1198 52.1636 57.7578 51.1897 57.7578C50.2418 57.7578 49.4944 58.1198 48.9475 58.8438C48.4058 59.5625 48.1272 60.5625 48.1116 61.8438V62.6797C48.1116 63.987 48.385 65.0156 48.9319 65.7656C49.484 66.5104 50.2418 66.8828 51.2053 66.8828C52.1741 66.8828 52.9241 66.5312 53.4553 65.8281C53.9866 65.1198 54.26 64.1068 54.2756 62.7891V61.9453ZM68.2078 62.6797C68.2078 63.7943 68.0203 64.7682 67.6453 65.6016C67.2703 66.4297 66.7391 67.0625 66.0516 67.5C65.3641 67.9375 64.562 68.1562 63.6453 68.1562C62.7495 68.1562 61.9552 67.9375 61.2625 67.5C60.5698 67.0573 60.0307 66.4297 59.6453 65.6172C59.2651 64.7995 59.0698 63.8542 59.0594 62.7812V61.9609C59.0594 60.8672 59.2495 59.901 59.6297 59.0625C60.0099 58.224 60.5464 57.5833 61.2391 57.1406C61.937 56.6927 62.7339 56.4688 63.6297 56.4688C64.5411 56.4688 65.3432 56.6901 66.0359 57.1328C66.7339 57.5703 67.2703 58.2083 67.6453 59.0469C68.0203 59.8802 68.2078 60.8516 68.2078 61.9609V62.6797ZM66.7156 61.9453C66.7156 60.5964 66.4448 59.5625 65.9031 58.8438C65.3615 58.1198 64.6036 57.7578 63.6297 57.7578C62.6818 57.7578 61.9344 58.1198 61.3875 58.8438C60.8458 59.5625 60.5672 60.5625 60.5516 61.8438V62.6797C60.5516 63.987 60.825 65.0156 61.3719 65.7656C61.924 66.5104 62.6818 66.8828 63.6453 66.8828C64.6141 66.8828 65.3641 66.5312 65.8953 65.8281C66.4266 65.1198 66.7 64.1068 66.7156 62.7891V61.9453ZM75.2494 62.9297C73.9629 62.5599 73.0254 62.1068 72.4369 61.5703C71.8535 61.0286 71.5619 60.362 71.5619 59.5703C71.5619 58.6745 71.9186 57.9349 72.6322 57.3516C73.3509 56.763 74.2832 56.4688 75.4291 56.4688C76.2103 56.4688 76.9056 56.6198 77.515 56.9219C78.1296 57.224 78.6035 57.6406 78.9369 58.1719C79.2754 58.7031 79.4447 59.2839 79.4447 59.9141H77.9369C77.9369 59.2266 77.7181 58.6875 77.2806 58.2969C76.8431 57.901 76.2259 57.7031 75.4291 57.7031C74.6895 57.7031 74.1114 57.8672 73.6947 58.1953C73.2832 58.5182 73.0775 58.9688 73.0775 59.5469C73.0775 60.0104 73.2728 60.4036 73.6634 60.7266C74.0593 61.0443 74.7285 61.3359 75.6712 61.6016C76.6192 61.8672 77.3587 62.1615 77.89 62.4844C78.4265 62.8021 78.8223 63.1745 79.0775 63.6016C79.3379 64.0286 79.4681 64.5312 79.4681 65.1094C79.4681 66.0312 79.1087 66.7708 78.39 67.3281C77.6712 67.8802 76.7103 68.1562 75.5072 68.1562C74.7259 68.1562 73.9968 68.0078 73.3197 67.7109C72.6426 67.4089 72.1192 66.9974 71.7494 66.4766C71.3848 65.9557 71.2025 65.3646 71.2025 64.7031H72.7103C72.7103 65.3906 72.9629 65.9349 73.4681 66.3359C73.9785 66.7318 74.6582 66.9297 75.5072 66.9297C76.2989 66.9297 76.9056 66.7682 77.3275 66.4453C77.7494 66.1224 77.9603 65.6823 77.9603 65.125C77.9603 64.5677 77.765 64.138 77.3744 63.8359C76.9837 63.5286 76.2754 63.2266 75.2494 62.9297ZM90.6972 57.8594H87.0409V68H85.5488V57.8594H81.9003V56.625H90.6972V57.8594ZM100.254 62.7422H95.3247V66.7734H101.051V68H93.8247V56.625H100.973V57.8594H95.3247V61.5156H100.254V62.7422ZM108.53 63.3984H105.858V68H104.351V56.625H108.116C109.397 56.625 110.382 56.9167 111.069 57.5C111.762 58.0833 112.108 58.9323 112.108 60.0469C112.108 60.7552 111.916 61.3724 111.53 61.8984C111.15 62.4245 110.619 62.8177 109.937 63.0781L112.608 67.9062V68H110.999L108.53 63.3984ZM105.858 62.1719H108.163C108.908 62.1719 109.499 61.9792 109.937 61.5938C110.379 61.2083 110.601 60.6927 110.601 60.0469C110.601 59.3438 110.39 58.8047 109.968 58.4297C109.551 58.0547 108.947 57.8646 108.155 57.8594H105.858V62.1719ZM119.009 62.9297C117.723 62.5599 116.785 62.1068 116.197 61.5703C115.614 61.0286 115.322 60.362 115.322 59.5703C115.322 58.6745 115.679 57.9349 116.392 57.3516C117.111 56.763 118.043 56.4688 119.189 56.4688C119.97 56.4688 120.666 56.6198 121.275 56.9219C121.89 57.224 122.364 57.6406 122.697 58.1719C123.035 58.7031 123.205 59.2839 123.205 59.9141H121.697C121.697 59.2266 121.478 58.6875 121.041 58.2969C120.603 57.901 119.986 57.7031 119.189 57.7031C118.449 57.7031 117.871 57.8672 117.455 58.1953C117.043 58.5182 116.838 58.9688 116.838 59.5469C116.838 60.0104 117.033 60.4036 117.423 60.7266C117.819 61.0443 118.489 61.3359 119.431 61.6016C120.379 61.8672 121.119 62.1615 121.65 62.4844C122.186 62.8021 122.582 63.1745 122.838 63.6016C123.098 64.0286 123.228 64.5312 123.228 65.1094C123.228 66.0312 122.869 66.7708 122.15 67.3281C121.431 67.8802 120.47 68.1562 119.267 68.1562C118.486 68.1562 117.757 68.0078 117.08 67.7109C116.403 67.4089 115.879 66.9974 115.509 66.4766C115.145 65.9557 114.963 65.3646 114.963 64.7031H116.47C116.47 65.3906 116.723 65.9349 117.228 66.3359C117.739 66.7318 118.418 66.9297 119.267 66.9297C120.059 66.9297 120.666 66.7682 121.088 66.4453C121.509 66.1224 121.72 65.6823 121.72 65.125C121.72 64.5677 121.525 64.138 121.134 63.8359C120.744 63.5286 120.035 63.2266 119.009 62.9297Z" fill="white"/>
<defs>
<linearGradient id="paint0_linear" x1="40.7664" y1="0" x2="40.7664" y2="48.9847" gradientUnits="userSpaceOnUse">
<stop stop-color="#C9A900"/>
<stop offset="1" stop-color="#EAA43B"/>
</linearGradient>
<linearGradient id="paint1_linear" x1="40.7664" y1="0" x2="40.7664" y2="48.9847" gradientUnits="userSpaceOnUse">
<stop stop-color="#C9A900"/>
<stop offset="1" stop-color="#EAA43B"/>
</linearGradient>
</defs>
</svg>
